<svg width="52" height="52" viewBox="0 0 52 52" fill="none" xmlns="http://www.w3.org/2000/svg">
<rect width="52" height="52" fill="#1A0321"/>
<path d="M34.112 32.765C31.6566 32.6041 29.7261 30.5729 29.7261 28.0899C29.7261 28.007 29.7278 27.9241 29.7326 27.8412V27.8526C29.7278 27.7746 29.7245 27.6836 29.7245 27.591C29.7245 25.1129 31.6583 23.0881 34.099 22.9402H34.112C36.5641 23.0735 38.5011 25.0934 38.5011 27.5666C38.5011 27.6674 38.4979 27.7665 38.4914 27.8656V27.8526C38.4963 27.9339 38.4995 28.0297 38.4995 28.1256C38.4995 30.6005 36.5641 32.6236 34.1234 32.7634H34.1104L34.112 32.765ZM17.9172 32.765C15.4619 32.6041 13.5314 30.5729 13.5314 28.0899C13.5314 28.007 13.533 27.9241 13.5379 27.8412V27.8526C13.533 27.7746 13.5297 27.6836 13.5297 27.591C13.5297 25.1129 15.4635 23.0881 17.9042 22.9402H17.9172C20.3694 23.0735 22.3064 25.0934 22.3064 27.5666C22.3064 27.6674 22.3031 27.7665 22.2966 27.8656V27.8526C22.3015 27.9306 22.3047 28.0216 22.3047 28.1142C22.3047 30.5924 20.371 32.6171 17.9303 32.765H17.9172ZM42.8886 10.5057C40.0238 9.15373 36.6958 8.08448 33.2118 7.46535L32.9696 7.4296C32.9615 7.42798 32.9517 7.42635 32.942 7.42635C32.8851 7.42635 32.8364 7.45723 32.8104 7.50273C32.4301 8.1706 32.0174 9.00423 31.6453 9.85898L31.5754 10.0394C29.9016 9.77123 27.9711 9.61848 26.0049 9.61848C24.0386 9.61848 22.1081 9.77123 20.2248 10.0654L20.4344 10.0377C19.9956 9.01398 19.5764 8.18198 19.1133 7.37598L19.1799 7.5011C19.1523 7.45398 19.1019 7.42473 19.045 7.42473C19.0369 7.42473 19.0271 7.42473 19.019 7.42635C15.2929 8.08123 11.9649 9.14885 8.85462 10.6065L9.1 10.5025C9.07237 10.5139 9.04962 10.5334 9.035 10.5577C4.39725 17.1244 1.62175 25.2949 1.62175 34.1137C1.62175 35.5876 1.69975 37.042 1.85087 38.4752L1.83625 38.2965C1.84112 38.3436 1.8655 38.3826 1.89962 38.4102C5.37713 41.0119 9.42013 43.1081 13.7832 44.4845L14.0693 44.5625C14.0822 44.5674 14.0985 44.569 14.1147 44.569C14.1667 44.569 14.2122 44.5446 14.2399 44.5072C15.1092 43.3372 15.9364 42.0112 16.653 40.6202L16.7294 40.4577C16.7391 40.4382 16.7456 40.4139 16.7456 40.3879C16.7456 40.3212 16.7034 40.266 16.6449 40.2432H16.6432C15.1612 39.6712 13.9084 39.0619 12.7156 38.3631L12.8407 38.4314C12.7936 38.4037 12.7627 38.3534 12.7627 38.2965C12.7627 38.2461 12.7871 38.2006 12.8245 38.173C13.0796 37.9812 13.3364 37.783 13.5801 37.5815C13.6061 37.5604 13.6403 37.5474 13.676 37.5474C13.6988 37.5474 13.7199 37.5522 13.7378 37.5604H13.7361C17.3241 39.2845 21.5361 40.292 25.9821 40.292C30.4281 40.292 34.6418 39.2845 38.402 37.4856L38.2281 37.5604C38.2476 37.5506 38.2688 37.5457 38.2931 37.5457C38.3289 37.5457 38.363 37.5587 38.389 37.5799C38.6328 37.7814 38.8879 37.9829 39.1463 38.173C39.1836 38.2022 39.208 38.2477 39.208 38.2981C39.208 38.355 39.1771 38.4037 39.1333 38.4314C38.0591 39.0732 36.8063 39.681 35.5014 40.1831L35.3308 40.2416C35.2723 40.2644 35.23 40.3212 35.23 40.3862C35.23 40.4122 35.2365 40.4366 35.2479 40.4577C36.062 42.0177 36.8875 43.3405 37.8008 44.5966L37.7358 44.504C37.7634 44.543 37.8105 44.569 37.8609 44.569C37.8771 44.569 37.8934 44.5657 37.908 44.5625C42.5636 43.113 46.6131 41.0167 50.2011 38.3355L50.0955 38.4119C50.1312 38.3859 50.154 38.3452 50.1589 38.2997C50.3003 37.0257 50.3799 35.547 50.3799 34.0504C50.3799 25.251 47.5979 17.1016 42.8675 10.4326L42.952 10.5594C42.939 10.5334 42.9162 10.5122 42.8903 10.5009L42.8886 10.5057Z" fill="#E2D9CB"/>
</svg>
