<?xml version="1.0" encoding="UTF-8"?>
<svg id="_Слой_2" data-name="Слой 2" xmlns="http://www.w3.org/2000/svg" xmlns:xlink="http://www.w3.org/1999/xlink" viewBox="0 0 1312.26 1312.26">
  <defs>
    <style>
      .cls-1 {
        fill: #1a0321;
      }

      .cls-2 {
        fill: none;
      }

      .cls-3 {
        fill: #e2d9cb;
      }

      .cls-4 {
        clip-path: url(#clippath);
      }
    </style>
    <clipPath id="clippath">
      <circle class="cls-2" cx="656.13" cy="656.13" r="656.13"/>
    </clipPath>
  </defs>
  <g id="_Слой_1-2" data-name="Слой 1">
    <circle class="cls-1" cx="656.13" cy="656.13" r="653.39"/>
    <g class="cls-4">
      <g>
        <rect class="cls-3" x="-114.22" y="672.94" width="1510.45" height="108.89"/>
        <path class="cls-3" d="M1114.74,1178.34l-68.86,84.35c-280.51-229-534.22-326.7-848.36-326.7H-114.22v-108.9H197.52c175.73,0,334.92,29.13,486.65,89.05,142.59,56.31,283.43,142.07,430.57,262.2Z"/>
        <path class="cls-3" d="M544.83,338.62c0,37.45-7.74,73.87-22.99,108.23-15.72,35.41-38.67,66.87-68.23,93.51-63.38,57.12-151.94,87.31-256.09,87.31H-114.22v-108.89H197.52c163.8,0,238.41-93.39,238.41-180.16s-74.61-180.16-238.41-180.16V49.56c104.15,0,192.71,30.2,256.09,87.32,29.56,26.63,52.51,58.1,68.23,93.5,15.25,34.37,22.99,70.78,22.99,108.24Z"/>
      </g>
    </g>
  </g>
</svg>